<svg width="20" height="14" viewBox="0 0 20 14" fill="none" xmlns="http://www.w3.org/2000/svg">
<path d="M12.5 11.375H1.25V8.75C1.91304 8.75 2.54893 8.56563 3.01777 8.23744C3.48661 7.90925 3.75 7.46413 3.75 7C3.75 6.53587 3.48661 6.09075 3.01777 5.76256C2.54893 5.43437 1.91304 5.25 1.25 5.25V2.625H12.5V4.8125H13.75V2.625H18.75V5.25C18.087 5.25 17.4511 5.43437 16.9822 5.76256C16.5134 6.09075 16.25 6.53587 16.25 7C16.25 7.46413 16.5134 7.90925 16.9822 8.23744C17.4511 8.56563 18.087 8.75 18.75 8.75V11.375H13.75V9.1875H12.5V11.375ZM12.5 5.6875V8.3125H13.75V5.6875H12.5Z" fill="#232323"/>
</svg>
